<svg viewBox="0 0 982 900" fill="none" xmlns="http://www.w3.org/2000/svg"><style>@keyframes rt{0%{transform:rotate(0deg)}to{transform:rotate(360deg)}}@keyframes rt-rv{0%{transform:rotate(0deg)}to{transform:rotate(-360deg)}}path{transform-origin:50% 50%;animation-iteration-count:infinite;animation-timing-function:linear}.rot{animation-name:rt}.rv{animation-name:rt-rv}</style><g style="mix-blend-mode:screen"><path class="rot" d="M178.159 291.057C159.614 333.503 132 380.38 132 429.662c0 49.281 27.614 96.16 46.159 138.606 16.994 38.894 31.542 74.066 60.841 103.953 30.916 31.537 77.192 57.189 118.234 75.121 42.445 18.545 89.323 64.158 138.605 64.158 49.281 0 96.16-45.613 138.605-64.158 41.042-17.932 73.038-43.584 103.954-75.121 29.299-29.887 86.96-65.059 103.954-103.954 18.545-42.445 0-106.649 0-155.931 0-49.281-10.288-78.833-28.833-121.279-16.994-38.894-11.171-91.393-40.47-121.28-30.916-31.537-97.563-39.863-138.605-57.795C591.999 93.437 545.12 78.5 495.839 78.5c-49.282 0-96.16 14.937-138.605 33.482-41.042 17.932-96.818 26.258-127.734 57.795-29.299 29.887-34.347 82.386-51.341 121.28z" fill="#D97480" style="animation-duration:50s"/></g><g style="mix-blend-mode:screen"><path class="rot" d="M178.159 291.057C159.614 333.503 132 380.38 132 429.662c0 49.281 27.614 96.16 46.159 138.606 16.994 38.894 31.542 74.066 60.841 103.953 30.916 31.537 77.192 57.189 118.234 75.121 42.445 18.545 89.323 64.158 138.605 64.158 49.281 0 96.16-45.613 138.605-64.158 41.042-17.932 73.038-43.584 103.954-75.121 29.299-29.887 86.96-65.059 103.954-103.954 18.545-42.445 0-106.649 0-155.931 0-49.281-10.288-78.833-28.833-121.279-16.994-38.894-11.171-91.393-40.47-121.28-30.916-31.537-97.563-39.863-138.605-57.795C591.999 93.437 545.12 78.5 495.839 78.5c-49.282 0-96.16 14.937-138.605 33.482-41.042 17.932-96.818 26.258-127.734 57.795-29.299 29.887-34.347 82.386-51.341 121.28z" fill="#91DAAF" style="animation-duration:75s"/></g><g style="mix-blend-mode:screen"><path class="rot" d="M178.159 291.057C159.614 333.503 132 380.38 132 429.662c0 49.281 27.614 96.16 46.159 138.606 16.994 38.894 31.542 74.066 60.841 103.953 30.916 31.537 77.192 57.189 118.234 75.121 42.445 18.545 89.323 64.158 138.605 64.158 49.281 0 96.16-45.613 138.605-64.158 41.042-17.932 73.038-43.584 103.954-75.121 29.299-29.887 86.96-65.059 103.954-103.954 18.545-42.445 0-106.649 0-155.931 0-49.281-10.288-78.833-28.833-121.279-16.994-38.894-11.171-91.393-40.47-121.28-30.916-31.537-97.563-39.863-138.605-57.795C591.999 93.437 545.12 78.5 495.839 78.5c-49.282 0-96.16 14.937-138.605 33.482-41.042 17.932-96.818 26.258-127.734 57.795-29.299 29.887-34.347 82.386-51.341 121.28z" fill="#477AD9" style="animation-duration:80s"/></g><g style="mix-blend-mode:screen"><path class="rv" d="M178.159 291.057C159.614 333.503 132 380.38 132 429.662c0 49.281 27.614 96.16 46.159 138.606 16.994 38.894 31.542 74.066 60.841 103.953 30.916 31.537 77.192 57.189 118.234 75.121 42.445 18.545 89.323 64.158 138.605 64.158 49.281 0 96.16-45.613 138.605-64.158 41.042-17.932 73.038-43.584 103.954-75.121 29.299-29.887 86.96-65.059 103.954-103.954 18.545-42.445 0-106.649 0-155.931 0-49.281-10.288-78.833-28.833-121.279-16.994-38.894-11.171-91.393-40.47-121.28-30.916-31.537-97.563-39.863-138.605-57.795C591.999 93.437 545.12 78.5 495.839 78.5c-49.282 0-96.16 14.937-138.605 33.482-41.042 17.932-96.818 26.258-127.734 57.795-29.299 29.887-34.347 82.386-51.341 121.28z" fill="#D97480" style="animation-duration:30s"/></g><g style="mix-blend-mode:screen"><path class="rv" d="M178.159 291.057C159.614 333.503 132 380.38 132 429.662c0 49.281 27.614 96.16 46.159 138.606 16.994 38.894 31.542 74.066 60.841 103.953 30.916 31.537 77.192 57.189 118.234 75.121 42.445 18.545 89.323 64.158 138.605 64.158 49.281 0 96.16-45.613 138.605-64.158 41.042-17.932 73.038-43.584 103.954-75.121 29.299-29.887 86.96-65.059 103.954-103.954 18.545-42.445 0-106.649 0-155.931 0-49.281-10.288-78.833-28.833-121.279-16.994-38.894-11.171-91.393-40.47-121.28-30.916-31.537-97.563-39.863-138.605-57.795C591.999 93.437 545.12 78.5 495.839 78.5c-49.282 0-96.16 14.937-138.605 33.482-41.042 17.932-96.818 26.258-127.734 57.795-29.299 29.887-34.347 82.386-51.341 121.28z" fill="#91DAAF" style="animation-duration:25s"/></g><g style="mix-blend-mode:screen"><path class="rv" d="M178.159 291.057C159.614 333.503 132 380.38 132 429.662c0 49.281 27.614 96.16 46.159 138.606 16.994 38.894 31.542 74.066 60.841 103.953 30.916 31.537 77.192 57.189 118.234 75.121 42.445 18.545 89.323 64.158 138.605 64.158 49.281 0 96.16-45.613 138.605-64.158 41.042-17.932 73.038-43.584 103.954-75.121 29.299-29.887 86.96-65.059 103.954-103.954 18.545-42.445 0-106.649 0-155.931 0-49.281-10.288-78.833-28.833-121.279-16.994-38.894-11.171-91.393-40.47-121.28-30.916-31.537-97.563-39.863-138.605-57.795C591.999 93.437 545.12 78.5 495.839 78.5c-49.282 0-96.16 14.937-138.605 33.482-41.042 17.932-96.818 26.258-127.734 57.795-29.299 29.887-34.347 82.386-51.341 121.28z" fill="#477AD9" style="animation-duration:45s"/></g></svg>