<svg width="100%" height="100%" viewBox="0 0 982 900" fill="none" opacity="1" xmlns="http://www.w3.org/2000/svg">
    <style>
        @keyframes rt {
            0% {transform:rotate(0deg);}
            100% {transform:rotate(360deg);}
        }
        @keyframes rt-rv {
            0% {transform:rotate(0deg);}
            100% {transform:rotate(-360deg);}
        }
        path {
            transform-origin: 50% 50%;
            animation-iteration-count: infinite;
            animation-timing-function: linear;
        }
        .rot{
            animation-name: rt;
        }
        .rv{
            animation-name: rt-rv;
        }

        #red {
            animation-duration: 50s;
        }
        #green {
            animation-duration: 75s;
        }
        #blue {
            animation-duration: 80s;
        }
        #red1 {
            animation-duration: 30s;
        }
        #green1 {
            animation-duration: 25s;
        }
        #blue1 {
            animation-duration: 45s;
        }
    </style>



    <g style="mix-blend-mode:screen">
        <path id="red" class="rot"
            d="M178.159 291.057C159.614 333.503 132 380.38 132 429.662C132 478.943 159.614 525.822 178.159 568.268C195.153 607.162 209.701 642.334 239 672.221C269.916 703.758 316.192 729.41 357.234 747.342C399.679 765.887 446.557 811.5 495.839 811.5C545.12 811.5 591.999 765.887 634.444 747.342C675.486 729.41 707.482 703.758 738.398 672.221C767.697 642.334 825.358 607.162 842.352 568.267C860.897 525.822 842.352 461.618 842.352 412.336C842.352 363.055 832.064 333.503 813.519 291.057C796.525 252.163 802.348 199.664 773.049 169.777C742.133 138.24 675.486 129.914 634.444 111.982C591.999 93.4373 545.12 78.5 495.839 78.5C446.557 78.5 399.679 93.4373 357.234 111.982C316.192 129.914 260.416 138.24 229.5 169.777C200.201 199.664 195.153 252.163 178.159 291.057Z"
            fill="#D97480">
        </path>
    </g>
    <g style="mix-blend-mode:screen">
        <path id="green" class="rot"
            d="M178.159 291.057C159.614 333.503 132 380.38 132 429.662C132 478.943 159.614 525.822 178.159 568.268C195.153 607.162 209.701 642.334 239 672.221C269.916 703.758 316.192 729.41 357.234 747.342C399.679 765.887 446.557 811.5 495.839 811.5C545.12 811.5 591.999 765.887 634.444 747.342C675.486 729.41 707.482 703.758 738.398 672.221C767.697 642.334 825.358 607.162 842.352 568.267C860.897 525.822 842.352 461.618 842.352 412.336C842.352 363.055 832.064 333.503 813.519 291.057C796.525 252.163 802.348 199.664 773.049 169.777C742.133 138.24 675.486 129.914 634.444 111.982C591.999 93.4373 545.12 78.5 495.839 78.5C446.557 78.5 399.679 93.4373 357.234 111.982C316.192 129.914 260.416 138.24 229.5 169.777C200.201 199.664 195.153 252.163 178.159 291.057Z"
            fill="#91DAAF">
        </path>
    </g>
    <g style="mix-blend-mode:screen">
        <path id="blue" class="rot"
            d="M178.159 291.057C159.614 333.503 132 380.38 132 429.662C132 478.943 159.614 525.822 178.159 568.268C195.153 607.162 209.701 642.334 239 672.221C269.916 703.758 316.192 729.41 357.234 747.342C399.679 765.887 446.557 811.5 495.839 811.5C545.12 811.5 591.999 765.887 634.444 747.342C675.486 729.41 707.482 703.758 738.398 672.221C767.697 642.334 825.358 607.162 842.352 568.267C860.897 525.822 842.352 461.618 842.352 412.336C842.352 363.055 832.064 333.503 813.519 291.057C796.525 252.163 802.348 199.664 773.049 169.777C742.133 138.24 675.486 129.914 634.444 111.982C591.999 93.4373 545.12 78.5 495.839 78.5C446.557 78.5 399.679 93.4373 357.234 111.982C316.192 129.914 260.416 138.24 229.5 169.777C200.201 199.664 195.153 252.163 178.159 291.057Z"
            fill="#477AD9">
        </path>
    </g>

    <g style="mix-blend-mode:screen">
        <path id="red1" class="rv"
            d="M178.159 291.057C159.614 333.503 132 380.38 132 429.662C132 478.943 159.614 525.822 178.159 568.268C195.153 607.162 209.701 642.334 239 672.221C269.916 703.758 316.192 729.41 357.234 747.342C399.679 765.887 446.557 811.5 495.839 811.5C545.12 811.5 591.999 765.887 634.444 747.342C675.486 729.41 707.482 703.758 738.398 672.221C767.697 642.334 825.358 607.162 842.352 568.267C860.897 525.822 842.352 461.618 842.352 412.336C842.352 363.055 832.064 333.503 813.519 291.057C796.525 252.163 802.348 199.664 773.049 169.777C742.133 138.24 675.486 129.914 634.444 111.982C591.999 93.4373 545.12 78.5 495.839 78.5C446.557 78.5 399.679 93.4373 357.234 111.982C316.192 129.914 260.416 138.24 229.5 169.777C200.201 199.664 195.153 252.163 178.159 291.057Z"
            fill="#D97480">
        </path>
    </g>
    <g style="mix-blend-mode:screen">
        <path id="green1" class="rv"
            d="M178.159 291.057C159.614 333.503 132 380.38 132 429.662C132 478.943 159.614 525.822 178.159 568.268C195.153 607.162 209.701 642.334 239 672.221C269.916 703.758 316.192 729.41 357.234 747.342C399.679 765.887 446.557 811.5 495.839 811.5C545.12 811.5 591.999 765.887 634.444 747.342C675.486 729.41 707.482 703.758 738.398 672.221C767.697 642.334 825.358 607.162 842.352 568.267C860.897 525.822 842.352 461.618 842.352 412.336C842.352 363.055 832.064 333.503 813.519 291.057C796.525 252.163 802.348 199.664 773.049 169.777C742.133 138.24 675.486 129.914 634.444 111.982C591.999 93.4373 545.12 78.5 495.839 78.5C446.557 78.5 399.679 93.4373 357.234 111.982C316.192 129.914 260.416 138.24 229.5 169.777C200.201 199.664 195.153 252.163 178.159 291.057Z"
            fill="#91DAAF">
        </path>
    </g>
    <g style="mix-blend-mode:screen">
        <path id="blue1" class="rv"
            d="M178.159 291.057C159.614 333.503 132 380.38 132 429.662C132 478.943 159.614 525.822 178.159 568.268C195.153 607.162 209.701 642.334 239 672.221C269.916 703.758 316.192 729.41 357.234 747.342C399.679 765.887 446.557 811.5 495.839 811.5C545.12 811.5 591.999 765.887 634.444 747.342C675.486 729.41 707.482 703.758 738.398 672.221C767.697 642.334 825.358 607.162 842.352 568.267C860.897 525.822 842.352 461.618 842.352 412.336C842.352 363.055 832.064 333.503 813.519 291.057C796.525 252.163 802.348 199.664 773.049 169.777C742.133 138.24 675.486 129.914 634.444 111.982C591.999 93.4373 545.12 78.5 495.839 78.5C446.557 78.5 399.679 93.4373 357.234 111.982C316.192 129.914 260.416 138.24 229.5 169.777C200.201 199.664 195.153 252.163 178.159 291.057Z"
            fill="#477AD9">
        </path>
    </g>
</svg>
