<svg width="16" height="16" viewBox="0 0 16 16" fill="none" xmlns="http://www.w3.org/2000/svg">
<path fill-rule="evenodd" clip-rule="evenodd" d="M2.13333 0.64L13.8667 0.64C14.6908 0.64 15.359 1.30759 15.36 2.13148L14.5508 2.27417L15.36 6.86346V13.8667C15.36 14.6914 14.6914 15.36 13.8667 15.36H11.3285L9.18475 3.20194L0.64 4.70861V2.13333C0.64 1.30859 1.30859 0.64 2.13333 0.64ZM13.8667 0C15.0066 0 15.9377 0.894037 15.997 2.01916C15.999 2.05697 16 2.09503 16 2.13333V10.4931V13.8667C16 15.0449 15.0449 16 13.8667 16H11.4414H2.13333C0.955126 16 0 15.0449 0 13.8667L0 4.82146L0 2.13333C0 0.955126 0.955126 0 2.13333 0L13.8667 0Z"/>
<style>
    path {
      fill: black;
    }
    @media (prefers-color-scheme: dark) {
      path {
        fill: white;
      }
    }
</style>
</svg>
